<svg xmlns="http://www.w3.org/2000/svg" viewBox="0 0 64 64" fill="none" stroke-linecap="round" stroke-linejoin="round">
  <title>Workflow</title>
  <defs>
    <linearGradient id="neon" x1="10" y1="7" x2="54" y2="59" gradientUnits="userSpaceOnUse">
      <stop offset="0" stop-color="#ff4ff3" />
      <stop offset="0.52" stop-color="#a45cff" />
      <stop offset="1" stop-color="#42d8ff" />
    </linearGradient>
    <filter id="glow" x="-25%" y="-25%" width="150%" height="150%">
      <feGaussianBlur stdDeviation=".8" result="blur" />
      <feMerge>
        <feMergeNode in="blur" />
        <feMergeNode in="SourceGraphic" />
      </feMerge>
    </filter>
  </defs>
  <g stroke="url(#neon)" stroke-width="2.8" opacity=".35" filter="url(#glow)">
    <path d="M32 14v17" />
    <path d="M27 34l-15 9v11" />
    <path d="M37 34l15 9v11" />
    <path d="M17 40l14-8" />
    <path d="M49 40l-17-8" />
    <circle cx="32" cy="10" r="5" />
    <circle cx="32" cy="32" r="6" />
    <circle cx="12" cy="43" r="6" />
    <circle cx="52" cy="43" r="6" />
    <circle cx="12" cy="56" r="5" />
    <circle cx="52" cy="56" r="5" />
  </g>
  <g stroke="url(#neon)" stroke-width="1.35" vector-effect="non-scaling-stroke">
    <path d="M32 14v17" />
    <path d="M27 34l-15 9v11" />
    <path d="M37 34l15 9v11" />
    <path d="M17 40l14-8" />
    <path d="M49 40l-17-8" />
    <circle cx="32" cy="10" r="5" />
    <circle cx="32" cy="32" r="6" />
    <circle cx="12" cy="43" r="6" />
    <circle cx="52" cy="43" r="6" />
    <circle cx="12" cy="56" r="5" />
    <circle cx="52" cy="56" r="5" />
    <path d="M20 27h.01M20 32h.01M24 27h.01M24 32h.01" />
    <path d="M44 27h.01M44 32h.01M48 27h.01M48 32h.01" />
    <path d="M32 42h.01M32 48h.01M32 54h.01" />
  </g>
  <circle cx="52" cy="43" r="7.2" stroke="#D8FE56" stroke-width="1.45" vector-effect="non-scaling-stroke" />
</svg>
